<svg width="272" height="272" viewBox="0 0 272 272" fill="none" xmlns="http://www.w3.org/2000/svg">
<path fill-rule="evenodd" clip-rule="evenodd" d="M154.903 130.809C149.91 132.545 144.645 132.798 139.104 131.568C140.579 130.789 142.015 130.03 143.413 129.291C156.642 123.047 168.132 114.19 177.883 102.718C184.635 102.121 191.338 102.121 197.99 102.718C196.076 101.705 194.16 100.694 192.245 99.6811C175.684 76.7481 153.662 64.0949 126.178 61.7201C107.327 60.1758 88.6556 60.9351 70.1638 63.9977C70.0633 68.6548 68.1473 72.1973 64.4188 74.6268C58.7327 75.8826 52.9877 76.6418 47.1838 76.9045C48.5454 77.6379 49.9816 77.89 51.4926 77.6637C77.3494 75.9646 102.244 80.2663 126.178 90.5705C130.733 93.2308 135.042 96.2677 139.104 99.6811C95.6473 105.066 58.5446 124.046 27.7944 156.623C21.1733 139.107 17.8225 120.886 17.7406 101.959C6.83948 144.421 14.7389 182.382 41.4388 215.842C43.2542 207.629 45.8869 199.531 49.3382 191.547C51.234 192.001 53.3884 192.254 55.8013 192.306C56.7004 193.445 57.4185 194.711 57.9557 196.102C59.7812 208.728 61.4573 221.381 62.9826 234.063C80.9487 246.469 100.576 253.05 121.869 253.803C104.469 212.987 87.9518 171.989 72.3182 130.809C88.8466 160.691 104.645 191.059 119.715 221.916C124.331 206.264 130.076 191.079 136.95 176.362C153.363 149.597 176.582 138.716 206.608 143.716C186.683 144.818 170.166 153.17 157.057 168.77C155.486 171.166 154.288 173.698 153.466 176.362C154.776 179.544 156.452 182.58 158.493 185.473C165.787 192.415 172.25 200.008 177.883 208.25C187.611 216.501 195.748 226.117 202.299 237.1C242.468 209.87 261.379 170.896 259.031 120.18C248.318 65.8275 217.439 31.6625 166.393 17.6853C129.057 11.1028 94.5873 18.695 62.9826 40.4619C108.167 28.4753 149.818 37.0803 187.937 66.2754C194.927 73.157 201.39 80.4971 207.326 88.2928C209.839 92.4625 211.276 97.0178 211.635 101.959C231.691 112.952 236.957 129.148 227.433 150.549C225.039 155.104 221.688 158.647 217.38 161.178C218.012 147.659 212.028 139.308 199.427 136.124C184.922 131.465 170.081 129.695 154.903 130.809ZM70.1638 63.9977C50.7673 66.5912 32.5743 72.9171 15.5863 82.9783C27.7513 81.8152 39.7196 80.0431 51.4926 77.6637C49.9816 77.89 48.5454 77.6379 47.1838 76.9045C52.9877 76.6418 58.7327 75.8826 64.4188 74.6268C68.1473 72.1973 70.0633 68.6548 70.1638 63.9977ZM157.775 86.7744C153.441 86.5238 149.132 86.7774 144.849 87.5336C148.658 92.8421 153.446 96.6382 159.212 98.9219C162.957 98.2796 166.309 96.7612 169.265 94.3666C165.349 91.6957 161.518 89.1644 157.775 86.7744ZM143.413 129.291C142.015 130.03 140.579 130.789 139.104 131.568C144.645 132.798 149.91 132.545 154.903 130.809C150.759 131.274 146.929 130.768 143.413 129.291ZM41.4388 215.842C47.7554 223.023 54.9367 229.096 62.9826 234.063C61.4573 221.381 59.7812 208.728 57.9557 196.102C57.4185 194.711 56.7004 193.445 55.8013 192.306C53.3884 192.254 51.234 192.001 49.3382 191.547C45.8869 199.531 43.2542 207.629 41.4388 215.842ZM177.883 208.25C182.921 213.857 186.512 220.437 188.655 227.989C192.105 230.832 195.217 233.869 197.99 237.1C199.427 237.1 200.863 237.1 202.299 237.1C195.748 226.117 187.611 216.501 177.883 208.25ZM146.285 193.065C143.265 199.251 141.35 205.831 140.54 212.805C142.314 212.469 143.75 211.457 144.849 209.768C152.114 221.336 158.815 233.23 164.957 245.452C163.216 247.132 163.694 247.892 166.393 247.729C171.665 247.339 176.454 245.821 180.755 243.174C178.857 243.432 177.18 242.926 175.728 241.655C172.258 234.821 168.428 228.242 164.238 221.916C160.402 210.758 154.417 201.14 146.285 193.065ZM140.54 212.805C138.209 218.616 136.773 224.69 136.231 231.026C140.806 234.435 145.593 240.003 150.594 247.729C156.05 249.693 161.317 249.693 166.393 247.729C163.694 247.892 163.216 247.132 164.957 245.452C158.815 233.23 152.114 221.336 144.849 209.768C143.75 211.457 142.314 212.469 140.54 212.805ZM153.466 176.362C151.301 178.915 149.864 181.952 149.158 185.473C153.935 190.815 158.005 196.889 161.366 203.694C163.538 204.844 165.453 206.362 167.111 208.25C172.616 217.866 178.123 227.484 183.628 237.1C185.982 238.348 188.375 239.361 190.809 240.137C193.758 240.286 196.152 239.273 197.99 237.1C195.217 233.869 192.105 230.832 188.655 227.989C186.512 220.437 182.921 213.857 177.883 208.25C172.25 200.008 165.787 192.415 158.493 185.473C156.452 182.58 154.776 179.544 153.466 176.362ZM149.158 185.473C147.806 187.827 146.85 190.356 146.285 193.065C154.417 201.14 160.402 210.758 164.238 221.916C168.428 228.242 172.258 234.821 175.728 241.655C177.18 242.926 178.857 243.432 180.755 243.174C184.673 243.673 188.026 242.662 190.809 240.137C188.375 239.361 185.982 238.348 183.628 237.1C178.123 227.484 172.616 217.866 167.111 208.25C165.453 206.362 163.538 204.844 161.366 203.694C158.005 196.889 153.935 190.815 149.158 185.473ZM136.231 231.026C134.027 239.437 132.591 248.042 131.923 256.84C157.566 257.909 181.024 251.329 202.299 237.1C200.863 237.1 199.427 237.1 197.99 237.1C196.152 239.273 193.758 240.286 190.809 240.137C188.026 242.662 184.673 243.673 180.755 243.174C176.454 245.821 171.665 247.339 166.393 247.729C161.317 249.693 156.05 249.693 150.594 247.729C145.593 240.003 140.806 234.435 136.231 231.026Z" fill="white"/>
<path fill-rule="evenodd" clip-rule="evenodd" d="M154.903 130.809C149.91 132.545 144.645 132.798 139.104 131.568C140.579 130.789 142.015 130.03 143.413 129.291C156.642 123.047 168.132 114.19 177.883 102.718C184.635 102.121 191.338 102.121 197.99 102.718C196.076 101.705 194.16 100.694 192.245 99.6811C175.684 76.7481 153.662 64.0949 126.178 61.7201C107.327 60.1758 88.6556 60.9351 70.1638 63.9977C70.0633 68.6548 68.1473 72.1973 64.4188 74.6268C58.7327 75.8826 52.9877 76.6418 47.1838 76.9045C48.5454 77.6379 49.9816 77.89 51.4926 77.6637C77.3494 75.9646 102.244 80.2663 126.178 90.5705C130.733 93.2308 135.042 96.2677 139.104 99.6811C95.6473 105.066 58.5446 124.046 27.7944 156.623C21.1733 139.107 17.8225 120.886 17.7406 101.959C6.83948 144.421 14.7389 182.382 41.4388 215.842C43.2542 207.629 45.8869 199.531 49.3382 191.547C51.234 192.001 53.3884 192.254 55.8013 192.306C56.7004 193.445 57.4185 194.711 57.9557 196.102C59.7812 208.728 61.4573 221.381 62.9826 234.063C80.9487 246.469 100.576 253.05 121.869 253.803C104.469 212.987 87.9518 171.989 72.3182 130.809C88.8466 160.691 104.645 191.059 119.715 221.916C124.331 206.264 130.076 191.079 136.95 176.362C153.363 149.597 176.582 138.716 206.608 143.716C186.683 144.818 170.166 153.17 157.057 168.77C155.486 171.166 154.288 173.698 153.466 176.362C154.776 179.544 156.452 182.58 158.493 185.473C165.787 192.415 172.25 200.008 177.883 208.25C187.611 216.501 195.748 226.117 202.299 237.1C242.468 209.87 261.379 170.896 259.031 120.18C248.318 65.8275 217.439 31.6625 166.393 17.6853C129.057 11.1028 94.5873 18.695 62.9826 40.4619C108.167 28.4753 149.818 37.0803 187.937 66.2754C194.927 73.157 201.39 80.4971 207.326 88.2928C209.839 92.4625 211.276 97.0178 211.635 101.959C231.691 112.952 236.957 129.148 227.433 150.549C225.039 155.104 221.688 158.647 217.38 161.178C218.012 147.659 212.028 139.308 199.427 136.124C184.922 131.465 170.081 129.695 154.903 130.809ZM70.1638 63.9977C50.7673 66.5912 32.5743 72.9171 15.5863 82.9783C27.7513 81.8152 39.7196 80.0431 51.4926 77.6637C49.9816 77.89 48.5454 77.6379 47.1838 76.9045C52.9877 76.6418 58.7327 75.8826 64.4188 74.6268C68.1473 72.1973 70.0633 68.6548 70.1638 63.9977ZM157.775 86.7744C153.441 86.5238 149.132 86.7774 144.849 87.5336C148.658 92.8421 153.446 96.6382 159.212 98.9219C162.957 98.2796 166.309 96.7612 169.265 94.3666C165.349 91.6957 161.518 89.1644 157.775 86.7744ZM143.413 129.291C142.015 130.03 140.579 130.789 139.104 131.568C144.645 132.798 149.91 132.545 154.903 130.809C150.759 131.274 146.929 130.768 143.413 129.291ZM41.4388 215.842C47.7554 223.023 54.9367 229.096 62.9826 234.063C61.4573 221.381 59.7812 208.728 57.9557 196.102C57.4185 194.711 56.7004 193.445 55.8013 192.306C53.3884 192.254 51.234 192.001 49.3382 191.547C45.8869 199.531 43.2542 207.629 41.4388 215.842ZM177.883 208.25C182.921 213.857 186.512 220.437 188.655 227.989C192.105 230.832 195.217 233.869 197.99 237.1C199.427 237.1 200.863 237.1 202.299 237.1C195.748 226.117 187.611 216.501 177.883 208.25ZM146.285 193.065C143.265 199.251 141.35 205.831 140.54 212.805C142.314 212.469 143.75 211.457 144.849 209.768C152.114 221.336 158.815 233.23 164.957 245.452C163.216 247.132 163.694 247.892 166.393 247.729C171.665 247.339 176.454 245.821 180.755 243.174C178.857 243.432 177.18 242.926 175.728 241.655C172.258 234.821 168.428 228.242 164.238 221.916C160.402 210.758 154.417 201.14 146.285 193.065ZM140.54 212.805C138.209 218.616 136.773 224.69 136.231 231.026C140.806 234.435 145.593 240.003 150.594 247.729C156.05 249.693 161.317 249.693 166.393 247.729C163.694 247.892 163.216 247.132 164.957 245.452C158.815 233.23 152.114 221.336 144.849 209.768C143.75 211.457 142.314 212.469 140.54 212.805ZM153.466 176.362C151.301 178.915 149.864 181.952 149.158 185.473C153.935 190.815 158.005 196.889 161.366 203.694C163.538 204.844 165.453 206.362 167.111 208.25C172.616 217.866 178.123 227.484 183.628 237.1C185.982 238.348 188.375 239.361 190.809 240.137C193.758 240.286 196.152 239.273 197.99 237.1C195.217 233.869 192.105 230.832 188.655 227.989C186.512 220.437 182.921 213.857 177.883 208.25C172.25 200.008 165.787 192.415 158.493 185.473C156.452 182.58 154.776 179.544 153.466 176.362ZM149.158 185.473C147.806 187.827 146.85 190.356 146.285 193.065C154.417 201.14 160.402 210.758 164.238 221.916C168.428 228.242 172.258 234.821 175.728 241.655C177.18 242.926 178.857 243.432 180.755 243.174C184.673 243.673 188.026 242.662 190.809 240.137C188.375 239.361 185.982 238.348 183.628 237.1C178.123 227.484 172.616 217.866 167.111 208.25C165.453 206.362 163.538 204.844 161.366 203.694C158.005 196.889 153.935 190.815 149.158 185.473ZM136.231 231.026C134.027 239.437 132.591 248.042 131.923 256.84C157.566 257.909 181.024 251.329 202.299 237.1C200.863 237.1 199.427 237.1 197.99 237.1C196.152 239.273 193.758 240.286 190.809 240.137C188.026 242.662 184.673 243.673 180.755 243.174C176.454 245.821 171.665 247.339 166.393 247.729C161.317 249.693 156.05 249.693 150.594 247.729C145.593 240.003 140.806 234.435 136.231 231.026Z" fill="white"/>
</svg>
